<svg data-v-423bf9ae="" xmlns="http://www.w3.org/2000/svg" viewBox="0 0 434.51102643485507 60" class="font"><!----><!----><!----><g data-v-423bf9ae="" id="75a55690-e80f-42d7-8366-7797be305948" fill="black" transform="matrix(4.548900604248047,0,0,4.548900604248047,-1.410144329071045,-8.006062507629395)"><path d="M4.75 12.75L4.98 13.09L4.98 13.09Q4.73 13.33 4.34 13.46L4.34 13.46L4.34 13.46Q3.95 13.59 3.53 13.59L3.53 13.59L3.53 13.59Q2.65 13.59 2.16 13.10L2.16 13.10L2.16 13.10Q1.68 12.60 1.68 11.73L1.68 11.73L1.68 6.69L0.31 6.69L0.31 6.29L1.68 6.29L1.68 4.69L2.14 4.69L2.14 6.29L4.54 6.29L4.54 6.69L2.14 6.69L2.14 11.66L2.14 11.66Q2.14 12.40 2.51 12.80L2.51 12.80L2.51 12.80Q2.87 13.19 3.57 13.19L3.57 13.19L3.57 13.19Q4.27 13.19 4.75 12.75L4.75 12.75ZM9.79 13.59L9.79 13.59Q8.78 13.59 7.96 13.13L7.96 13.13L7.96 13.13Q7.14 12.66 6.68 11.82L6.68 11.82L6.68 11.82Q6.22 10.98 6.22 9.91L6.22 9.91L6.22 9.91Q6.22 8.85 6.68 8.01L6.68 8.01L6.68 8.01Q7.14 7.17 7.96 6.70L7.96 6.70L7.96 6.70Q8.78 6.23 9.79 6.23L9.79 6.23L9.79 6.23Q10.81 6.23 11.62 6.70L11.62 6.70L11.62 6.70Q12.43 7.17 12.89 8.01L12.89 8.01L12.89 8.01Q13.36 8.85 13.36 9.91L13.36 9.91L13.36 9.91Q13.36 10.98 12.89 11.82L12.89 11.82L12.89 11.82Q12.43 12.66 11.62 13.13L11.62 13.13L11.62 13.13Q10.81 13.59 9.79 13.59L9.79 13.59ZM9.79 13.17L9.79 13.17Q10.67 13.17 11.38 12.76L11.38 12.76L11.38 12.76Q12.08 12.35 12.49 11.61L12.49 11.61L12.49 11.61Q12.89 10.86 12.89 9.91L12.89 9.91L12.89 9.91Q12.89 8.96 12.49 8.22L12.49 8.22L12.49 8.22Q12.08 7.49 11.38 7.08L11.38 7.08L11.38 7.08Q10.67 6.66 9.79 6.66L9.79 6.66L9.79 6.66Q8.90 6.66 8.20 7.08L8.20 7.08L8.20 7.08Q7.49 7.49 7.08 8.22L7.08 8.22L7.08 8.22Q6.68 8.96 6.68 9.91L6.68 9.91L6.68 9.91Q6.68 10.86 7.08 11.61L7.08 11.61L7.08 11.61Q7.49 12.35 8.20 12.76L8.20 12.76L8.20 12.76Q8.90 13.17 9.79 13.17L9.79 13.17ZM21.49 3.16L21.95 3.16L21.95 13.55L21.50 13.55L21.50 11.56L21.50 11.56Q21.10 12.52 20.27 13.05L20.27 13.05L20.27 13.05Q19.43 13.59 18.37 13.59L18.37 13.59L18.37 13.59Q17.37 13.59 16.56 13.13L16.56 13.13L16.56 13.13Q15.75 12.66 15.28 11.82L15.28 11.82L15.28 11.82Q14.81 10.98 14.81 9.91L14.81 9.91L14.81 9.91Q14.81 8.85 15.28 8.01L15.28 8.01L15.28 8.01Q15.75 7.17 16.56 6.70L16.56 6.70L16.56 6.70Q17.37 6.23 18.37 6.23L18.37 6.23L18.37 6.23Q19.42 6.23 20.25 6.76L20.25 6.76L20.25 6.76Q21.08 7.29 21.49 8.23L21.49 8.23L21.49 3.16ZM18.38 13.17L18.38 13.17Q19.26 13.17 19.97 12.76L19.97 12.76L19.97 12.76Q20.68 12.35 21.08 11.61L21.08 11.61L21.08 11.61Q21.49 10.86 21.49 9.91L21.49 9.91L21.49 9.91Q21.49 8.96 21.08 8.22L21.08 8.22L21.08 8.22Q20.68 7.49 19.97 7.08L19.97 7.08L19.97 7.08Q19.26 6.66 18.38 6.66L18.38 6.66L18.38 6.66Q17.50 6.66 16.79 7.08L16.79 7.08L16.79 7.08Q16.09 7.49 15.68 8.22L15.68 8.22L15.68 8.22Q15.27 8.96 15.27 9.91L15.27 9.91L15.27 9.91Q15.27 10.86 15.68 11.61L15.68 11.61L15.68 11.61Q16.09 12.35 16.79 12.76L16.79 12.76L16.79 12.76Q17.50 13.17 18.38 13.17L18.38 13.17ZM27.80 13.59L27.80 13.59Q26.80 13.59 25.98 13.13L25.98 13.13L25.98 13.13Q25.16 12.66 24.70 11.82L24.70 11.82L24.70 11.82Q24.23 10.98 24.23 9.91L24.23 9.91L24.23 9.91Q24.23 8.85 24.70 8.01L24.70 8.01L24.70 8.01Q25.16 7.17 25.98 6.70L25.98 6.70L25.98 6.70Q26.80 6.23 27.80 6.23L27.80 6.23L27.80 6.23Q28.83 6.23 29.64 6.70L29.64 6.70L29.64 6.70Q30.45 7.17 30.91 8.01L30.91 8.01L30.91 8.01Q31.37 8.85 31.37 9.91L31.37 9.91L31.37 9.91Q31.37 10.98 30.91 11.82L30.91 11.82L30.91 11.82Q30.45 12.66 29.64 13.13L29.64 13.13L29.64 13.13Q28.83 13.59 27.80 13.59L27.80 13.59ZM27.80 13.17L27.80 13.17Q28.69 13.17 29.39 12.76L29.39 12.76L29.39 12.76Q30.10 12.35 30.51 11.61L30.51 11.61L30.51 11.61Q30.91 10.86 30.91 9.91L30.91 9.91L30.91 9.91Q30.91 8.96 30.51 8.22L30.51 8.22L30.51 8.22Q30.10 7.49 29.39 7.08L29.39 7.08L29.39 7.08Q28.69 6.66 27.80 6.66L27.80 6.66L27.80 6.66Q26.92 6.66 26.21 7.08L26.21 7.08L26.21 7.08Q25.51 7.49 25.10 8.22L25.10 8.22L25.10 8.22Q24.70 8.96 24.70 9.91L24.70 9.91L24.70 9.91Q24.70 10.86 25.10 11.61L25.10 11.61L25.10 11.61Q25.51 12.35 26.21 12.76L26.21 12.76L26.21 12.76Q26.92 13.17 27.80 13.17L27.80 13.17ZM35.41 13.59L35.41 13.59Q34.52 13.59 33.75 13.33L33.75 13.33L33.75 13.33Q32.97 13.06 32.54 12.63L32.54 12.63L32.76 12.26L32.76 12.26Q33.21 12.66 33.92 12.92L33.92 12.92L33.92 12.92Q34.62 13.19 35.42 13.19L35.42 13.19L35.42 13.19Q36.60 13.19 37.16 12.79L37.16 12.79L37.16 12.79Q37.72 12.39 37.72 11.68L37.72 11.68L37.72 11.68Q37.72 11.17 37.42 10.88L37.42 10.88L37.42 10.88Q37.11 10.58 36.67 10.44L36.67 10.44L36.67 10.44Q36.22 10.30 35.46 10.16L35.46 10.16L35.46 10.16Q34.58 10.00 34.06 9.82L34.06 9.82L34.06 9.82Q33.53 9.65 33.17 9.25L33.17 9.25L33.17 9.25Q32.80 8.86 32.80 8.16L32.80 8.16L32.80 8.16Q32.80 7.34 33.48 6.78L33.48 6.78L33.48 6.78Q34.16 6.23 35.46 6.23L35.46 6.23L35.46 6.23Q36.13 6.23 36.81 6.43L36.81 6.43L36.81 6.43Q37.48 6.64 37.90 6.97L37.90 6.97L37.66 7.34L37.66 7.34Q37.23 7.00 36.65 6.82L36.65 6.82L36.65 6.82Q36.06 6.65 35.45 6.65L35.45 6.65L35.45 6.65Q34.37 6.65 33.82 7.06L33.82 7.06L33.82 7.06Q33.28 7.48 33.28 8.15L33.28 8.15L33.28 8.15Q33.28 8.68 33.59 8.99L33.59 8.99L33.59 8.99Q33.89 9.30 34.35 9.44L34.35 9.44L34.35 9.44Q34.80 9.59 35.59 9.74L35.59 9.74L35.59 9.74Q36.43 9.90 36.95 10.07L36.95 10.07L36.95 10.07Q37.46 10.25 37.82 10.63L37.82 10.63L37.82 10.63Q38.18 11.00 38.18 11.68L38.18 11.68L38.18 11.68Q38.18 12.56 37.46 13.08L37.46 13.08L37.46 13.08Q36.75 13.59 35.41 13.59L35.41 13.59ZM53.49 6.29L53.94 6.29L51.17 13.55L50.74 13.55L48.16 6.90L45.57 13.55L45.16 13.55L42.38 6.29L42.83 6.29L45.36 13.02L47.95 6.29L48.37 6.29L50.95 13.02L53.49 6.29ZM53.80 14.95L58.42 1.76L58.86 1.76L54.24 14.95L53.80 14.95ZM71.08 13.55L69.76 10.68L63.90 10.68L62.58 13.55L62.06 13.55L66.60 3.75L67.06 3.75L71.60 13.55L71.08 13.55ZM64.08 10.28L69.58 10.28L66.84 4.30L64.08 10.28ZM75.01 13.59L75.01 13.59Q74.13 13.59 73.35 13.33L73.35 13.33L73.35 13.33Q72.58 13.06 72.14 12.63L72.14 12.63L72.37 12.26L72.37 12.26Q72.81 12.66 73.52 12.92L73.52 12.92L73.52 12.92Q74.23 13.19 75.03 13.19L75.03 13.19L75.03 13.19Q76.20 13.19 76.76 12.79L76.76 12.79L76.76 12.79Q77.32 12.39 77.32 11.68L77.32 11.68L77.32 11.68Q77.32 11.17 77.02 10.88L77.02 10.88L77.02 10.88Q76.72 10.58 76.27 10.44L76.27 10.44L76.27 10.44Q75.82 10.30 75.07 10.16L75.07 10.16L75.07 10.16Q74.19 10.00 73.66 9.82L73.66 9.82L73.66 9.82Q73.14 9.65 72.77 9.25L72.77 9.25L72.77 9.25Q72.41 8.86 72.41 8.16L72.41 8.16L72.41 8.16Q72.41 7.34 73.09 6.78L73.09 6.78L73.09 6.78Q73.77 6.23 75.07 6.23L75.07 6.23L75.07 6.23Q75.74 6.23 76.41 6.43L76.41 6.43L76.41 6.43Q77.08 6.64 77.50 6.97L77.50 6.97L77.27 7.34L77.27 7.34Q76.83 7.00 76.25 6.82L76.25 6.82L76.25 6.82Q75.67 6.65 75.05 6.65L75.05 6.65L75.05 6.65Q73.98 6.65 73.43 7.06L73.43 7.06L73.43 7.06Q72.88 7.48 72.88 8.15L72.88 8.15L72.88 8.15Q72.88 8.68 73.19 8.99L73.19 8.99L73.19 8.99Q73.50 9.30 73.95 9.44L73.95 9.44L73.95 9.44Q74.41 9.59 75.19 9.74L75.19 9.74L75.19 9.74Q76.03 9.90 76.55 10.07L76.55 10.07L76.55 10.07Q77.07 10.25 77.43 10.63L77.43 10.63L77.43 10.63Q77.78 11.00 77.78 11.68L77.78 11.68L77.78 11.68Q77.78 12.56 77.07 13.08L77.07 13.08L77.07 13.08Q76.36 13.59 75.01 13.59L75.01 13.59ZM83.03 12.75L83.27 13.09L83.27 13.09Q83.02 13.33 82.63 13.46L82.63 13.46L82.63 13.46Q82.24 13.59 81.82 13.59L81.82 13.59L81.82 13.59Q80.93 13.59 80.45 13.10L80.45 13.10L80.45 13.10Q79.97 12.60 79.97 11.73L79.97 11.73L79.97 6.69L78.60 6.69L78.60 6.29L79.97 6.29L79.97 4.69L80.43 4.69L80.43 6.29L82.82 6.29L82.82 6.69L80.43 6.69L80.43 11.66L80.43 11.66Q80.43 12.40 80.79 12.80L80.79 12.80L80.79 12.80Q81.16 13.19 81.86 13.19L81.86 13.19L81.86 13.19Q82.56 13.19 83.03 12.75L83.03 12.75ZM85.78 8.04L85.78 8.04Q86.10 7.17 86.82 6.70L86.82 6.70L86.82 6.70Q87.54 6.23 88.61 6.23L88.61 6.23L88.61 6.69L88.48 6.69L88.48 6.69Q87.22 6.69 86.51 7.49L86.51 7.49L86.51 7.49Q85.79 8.29 85.79 9.69L85.79 9.69L85.79 13.55L85.33 13.55L85.33 6.29L85.78 6.29L85.78 8.04ZM93.14 6.23L93.14 6.23Q94.44 6.23 95.14 6.90L95.14 6.90L95.14 6.90Q95.83 7.57 95.83 8.85L95.83 8.85L95.83 13.55L95.38 13.55L95.38 12.10L95.38 12.10Q95.03 12.80 94.34 13.20L94.34 13.20L94.34 13.20Q93.65 13.59 92.68 13.59L92.68 13.59L92.68 13.59Q91.46 13.59 90.77 13.03L90.77 13.03L90.77 13.03Q90.08 12.47 90.08 11.55L90.08 11.55L90.08 11.55Q90.08 10.67 90.71 10.11L90.71 10.11L90.71 10.11Q91.34 9.56 92.72 9.56L92.72 9.56L95.37 9.56L95.37 8.85L95.37 8.85Q95.37 7.77 94.80 7.21L94.80 7.21L94.80 7.21Q94.23 6.65 93.13 6.65L93.13 6.65L93.13 6.65Q92.36 6.65 91.69 6.92L91.69 6.92L91.69 6.92Q91.01 7.18 90.54 7.63L90.54 7.63L90.29 7.29L90.29 7.29Q90.82 6.79 91.57 6.51L91.57 6.51L91.57 6.51Q92.32 6.23 93.14 6.23L93.14 6.23ZM92.71 13.20L92.71 13.20Q94.67 13.20 95.37 11.45L95.37 11.45L95.37 9.94L92.72 9.94L92.72 9.94Q91.59 9.94 91.06 10.37L91.06 10.37L91.06 10.37Q90.54 10.79 90.54 11.52L90.54 11.52L90.54 11.52Q90.54 12.31 91.12 12.75L91.12 12.75L91.12 12.75Q91.70 13.20 92.71 13.20L92.71 13.20Z"></path></g><!----><!----></svg>